<svg width="96" height="82" viewBox="0 0 96 82" fill="none" xmlns="http://www.w3.org/2000/svg">
<path d="M5.7 38.6471L14.6445 11.78C14.9165 10.963 15.681 10.4118 16.5421 10.4118H33.9M5.7 38.6471H90.3M5.7 38.6471H3C1.89543 38.6471 1 39.5425 1 40.6471V64.8824C1 65.9869 1.89543 66.8824 3 66.8824H8.05M5.7 38.6471L1 33.9412M90.3 38.6471L81.3555 11.78C81.0835 10.963 80.319 10.4118 79.4579 10.4118H62.1M90.3 38.6471H93C94.1046 38.6471 95 39.5425 95 40.6471V64.8824C95 65.9869 94.1046 66.8824 93 66.8824H87.95M90.3 38.6471L95 33.9412M8.05 66.8824V80C8.05 80.5523 8.49771 81 9.05 81H28.2C28.7523 81 29.2 80.5523 29.2 80V66.8824M8.05 66.8824H29.2M29.2 66.8824H66.8M66.8 66.8824V80C66.8 80.5523 67.2477 81 67.8 81H86.95C87.5023 81 87.95 80.5523 87.95 80V66.8824M66.8 66.8824H87.95M33.9 10.4118L38.6 1H57.4L62.1 10.4118M33.9 10.4118H62.1" stroke="white" stroke-width="2" stroke-linecap="round" stroke-linejoin="round"/>
</svg>
